<svg width="14" height="14" viewBox="0 0 14 14" fill="none" xmlns="http://www.w3.org/2000/svg">
<path d="M1.5 0H4.5C5.3125 0 6 0.6875 6 1.5V6.5C6 7.34375 5.3125 8 4.5 8H1.5C0.65625 8 0 7.34375 0 6.5V1.5C0 0.6875 0.65625 0 1.5 0ZM9.5 6H12.5C13.3125 6 14 6.6875 14 7.5V12.5C14 13.3438 13.3125 14 12.5 14H9.5C8.65625 14 8 13.3438 8 12.5V7.5C8 6.6875 8.65625 6 9.5 6ZM0 11.5C0 10.6875 0.65625 10 1.5 10H4.5C5.3125 10 6 10.6875 6 11.5V12.5C6 13.3438 5.3125 14 4.5 14H1.5C0.65625 14 0 13.3438 0 12.5V11.5ZM9.5 0H12.5C13.3125 0 14 0.6875 14 1.5V2.5C14 3.34375 13.3125 4 12.5 4H9.5C8.65625 4 8 3.34375 8 2.5V1.5C8 0.6875 8.65625 0 9.5 0Z" fill="white"/>
</svg>
