<svg width="20" height="16" viewBox="0 0 20 16" fill="none" xmlns="http://www.w3.org/2000/svg">
<path d="M1.5 0H10.5C11.3125 0 12 0.6875 12 1.5V8.5V11.5C10.7812 12.1875 10 13.4375 10 14.9062C10 15.3125 10.0938 15.6875 10.2812 16H7.5V13.5C7.5 12.6875 6.8125 12 6 12C5.15625 12 4.5 12.6875 4.5 13.5V16H1.5C0.65625 16 0 15.3438 0 14.5V1.5C0 0.6875 0.65625 0 1.5 0ZM2 7.5V8.5C2 8.78125 2.21875 9 2.5 9H3.5C3.75 9 4 8.78125 4 8.5V7.5C4 7.25 3.75 7 3.5 7H2.5C2.21875 7 2 7.25 2 7.5ZM5.5 7C5.21875 7 5 7.25 5 7.5V8.5C5 8.78125 5.21875 9 5.5 9H6.5C6.75 9 7 8.78125 7 8.5V7.5C7 7.25 6.75 7 6.5 7H5.5ZM8 7.5V8.5C8 8.78125 8.21875 9 8.5 9H9.5C9.75 9 10 8.78125 10 8.5V7.5C10 7.25 9.75 7 9.5 7H8.5C8.21875 7 8 7.25 8 7.5ZM2.5 3C2.21875 3 2 3.25 2 3.5V4.5C2 4.78125 2.21875 5 2.5 5H3.5C3.75 5 4 4.78125 4 4.5V3.5C4 3.25 3.75 3 3.5 3H2.5ZM5 3.5V4.5C5 4.78125 5.21875 5 5.5 5H6.5C6.75 5 7 4.78125 7 4.5V3.5C7 3.25 6.75 3 6.5 3H5.5C5.21875 3 5 3.25 5 3.5ZM8.5 3C8.21875 3 8 3.25 8 3.5V4.5C8 4.78125 8.21875 5 8.5 5H9.5C9.75 5 10 4.78125 10 4.5V3.5C10 3.25 9.75 3 9.5 3H8.5ZM18 8.5C18 9.40625 17.5 10.2188 16.75 10.6875C15.9688 11.125 15 11.125 14.25 10.6875C13.4688 10.2188 13 9.40625 13 8.5C13 7.625 13.4688 6.8125 14.25 6.34375C15 5.90625 15.9688 5.90625 16.75 6.34375C17.5 6.8125 18 7.625 18 8.5ZM11 14.9375C11 13.3125 12.2812 12 13.9062 12H17.0625C18.6875 12 20 13.3125 20 14.9375C20 15.5312 19.5 16 18.9062 16H12.0625C11.4688 16 11 15.5312 11 14.9375Z" fill="#151F28"/>
</svg>
