<svg width="19" height="16" viewBox="0 0 19 16" fill="none" xmlns="http://www.w3.org/2000/svg">
<path d="M9.75 0.75V1.09375C9.9375 1.125 10.125 1.1875 10.3125 1.21875C10.7188 1.34375 10.9375 1.75 10.8438 2.15625C10.7188 2.53125 10.3125 2.78125 9.90625 2.6875C9.5625 2.59375 9.25 2.53125 8.96875 2.53125C8.75 2.5 8.5 2.5625 8.375 2.65625C8.3125 2.6875 8.28125 2.71875 8.25 2.75C8.25 2.75 8.25 2.78125 8.25 2.84375C8.25 2.875 8.25 2.90625 8.34375 2.9375C8.53125 3.03125 8.78125 3.125 9.1875 3.25H9.21875C9.5625 3.375 10.0312 3.5 10.4062 3.75C10.8438 4 11.2188 4.46875 11.2188 5.15625C11.25 5.84375 10.875 6.34375 10.4062 6.65625C10.1875 6.78125 9.96875 6.875 9.71875 6.9375V7.25C9.71875 7.6875 9.40625 8 8.96875 8C8.5625 8 8.21875 7.6875 8.21875 7.25V6.90625C7.9375 6.84375 7.65625 6.75 7.4375 6.65625C7.375 6.65625 7.3125 6.625 7.25 6.59375C6.84375 6.46875 6.625 6.03125 6.78125 5.65625C6.90625 5.25 7.3125 5.03125 7.71875 5.1875C7.8125 5.21875 7.875 5.21875 7.9375 5.25C8.375 5.40625 8.6875 5.5 9 5.5C9.25 5.53125 9.46875 5.46875 9.59375 5.375C9.65625 5.34375 9.6875 5.3125 9.71875 5.28125C9.71875 5.28125 9.75 5.25 9.71875 5.15625C9.71875 5.125 9.71875 5.09375 9.59375 5.03125C9.4375 4.90625 9.15625 4.8125 8.75 4.6875H8.6875C8.375 4.5625 7.90625 4.4375 7.5625 4.21875C7.15625 3.96875 6.75 3.53125 6.71875 2.84375C6.71875 2.125 7.125 1.65625 7.59375 1.375C7.8125 1.25 8 1.15625 8.21875 1.125V0.75C8.21875 0.34375 8.5625 0 8.96875 0C9.40625 0 9.71875 0.34375 9.71875 0.75H9.75ZM17.75 10.5312C18.1562 11.0938 18.0312 11.875 17.4688 12.2812L13.5312 15.1875C12.7812 15.7188 11.9062 16 11 16H6H1C0.4375 16 0 15.5625 0 15V13C0 12.4688 0.4375 12 1 12H2.125L3.53125 10.875C4.25 10.3125 5.125 10 6.03125 10H8.5H9H11C11.5312 10 12 10.4688 12 11C12 11.5625 11.5312 12 11 12H9H8.5C8.21875 12 8 12.25 8 12.5C8 12.7812 8.21875 13 8.5 13H12.25L16 10.25C16.5625 9.84375 17.3438 9.96875 17.75 10.5312ZM6.03125 12H6C6.03125 12 6.03125 12 6.03125 12Z" fill="white"/>
</svg>
