<svg width="14" height="16" viewBox="0 0 14 16" fill="none" xmlns="http://www.w3.org/2000/svg">
<path d="M7 8C5.5625 8 4.25 7.25 3.53125 6C2.8125 4.78125 2.8125 3.25 3.53125 2C4.25 0.78125 5.5625 0 7 0C8.40625 0 9.71875 0.78125 10.4375 2C11.1562 3.25 11.1562 4.78125 10.4375 6C9.71875 7.25 8.40625 8 7 8ZM6.53125 11.25L5.9375 10.2812C5.75 9.9375 5.96875 9.5 6.375 9.5H7H7.59375C8 9.5 8.21875 9.9375 8.03125 10.2812L7.4375 11.25L8.5 15.125L9.625 10.5312C9.6875 10.2812 9.9375 10.0938 10.1875 10.1562C12.375 10.7188 14 12.6875 14 15.0625C14 15.5938 13.5625 16 13.0312 16H8.90625C8.84375 16 8.78125 16 8.71875 15.9688L8.75 16H5.25V15.9688C5.1875 16 5.125 16 5.0625 16H0.9375C0.40625 16 0 15.5938 0 15.0625C0 12.6875 1.59375 10.7188 3.78125 10.1562C4.0625 10.0938 4.28125 10.2812 4.34375 10.5312L5.46875 15.125L6.53125 11.25Z" fill="white"/>
</svg>
