<svg width="20" height="16" viewBox="0 0 20 16" fill="none" xmlns="http://www.w3.org/2000/svg">
<path d="M4.5 5C3.59375 5 2.78125 4.53125 2.3125 3.75C1.875 3 1.875 2.03125 2.3125 1.25C2.78125 0.5 3.59375 0 4.5 0C5.375 0 6.1875 0.5 6.65625 1.25C7.09375 2.03125 7.09375 3 6.65625 3.75C6.1875 4.53125 5.375 5 4.5 5ZM16 5C15.0938 5 14.2812 4.53125 13.8125 3.75C13.375 3 13.375 2.03125 13.8125 1.25C14.2812 0.5 15.0938 0 16 0C16.875 0 17.6875 0.5 18.1562 1.25C18.5938 2.03125 18.5938 3 18.1562 3.75C17.6875 4.53125 16.875 5 16 5ZM0 9.34375C0 7.5 1.46875 6 3.3125 6H4.65625C5.15625 6 5.625 6.125 6.0625 6.3125C6 6.53125 6 6.78125 6 7C6 8.21875 6.5 9.28125 7.34375 10H7.3125H0.65625C0.28125 10 0 9.71875 0 9.34375ZM10 10C8.34375 10 7 8.65625 7 7C7 5.34375 8.34375 4 10 4C11.6562 4 13 5.34375 13 7C13 7.625 12.8125 8.21875 12.4688 8.6875C12.375 8.75 12.2812 8.84375 12.1875 8.9375C12.0938 9.0625 12.0312 9.15625 11.9375 9.28125C11.4062 9.75 10.75 10 10 10ZM12.0312 11.9062L12.125 11.9375C12.125 11.9688 12.125 12 12.125 12.0312C12.125 12.0312 12.125 12.0625 12.125 12.0938L12.0312 12.125C11.5 12.4375 11.1875 13.125 11.4375 13.7812C11.5312 13.9688 11.625 14.1875 11.7188 14.375L11.8125 14.5312C11.9375 14.7188 12.0625 14.9062 12.1875 15.0938C12.625 15.625 13.375 15.6875 13.9062 15.375L14 15.3438C14.0312 15.375 14.0625 15.375 14.125 15.4062V15.5C14.125 15.6875 14.1562 15.8438 14.2188 16H4.8125C4.34375 16 4 15.625 4 15.1875C4 12.875 5.84375 11 8.15625 11H11.375C11.4688 11.375 11.7188 11.7188 12.0312 11.9062ZM16.6562 6C18.4375 6 19.9062 7.4375 19.9688 9.21875C19.9062 9.125 19.8438 9.03125 19.7812 8.9375C19.3438 8.40625 18.5938 8.34375 18.0625 8.65625L18 8.6875C17.9375 8.65625 17.9062 8.65625 17.875 8.625V8.53125C17.875 7.9375 17.4375 7.3125 16.75 7.1875C16.5 7.15625 16.25 7.125 16 7.125C15.7188 7.125 15.4688 7.15625 15.2188 7.1875C14.5312 7.3125 14.125 7.9375 14.125 8.53125V8.625C14.0625 8.65625 14.0312 8.65625 14 8.6875L13.9062 8.65625C13.8438 8.59375 13.75 8.5625 13.6875 8.53125C13.875 8.0625 14 7.5625 14 7C14 6.78125 13.9688 6.53125 13.9375 6.3125C14.3438 6.125 14.8125 6 15.3125 6H16.6562ZM19.5 11.125L18.9375 11.4688C18.9688 11.6562 19 11.8438 19 12.0312C19 12.1875 18.9688 12.375 18.9375 12.5625L19.5 12.9062C19.7188 13 19.8125 13.25 19.7188 13.4375C19.6562 13.625 19.5625 13.7812 19.5 13.9375L19.4062 14.0625C19.3125 14.25 19.2188 14.375 19.0938 14.5312C18.9688 14.7188 18.6875 14.75 18.5 14.625L17.9375 14.2812C17.6562 14.5312 17.3438 14.7188 17 14.8438V15.5C17 15.7188 16.8438 15.9375 16.5938 15.9688C16.4062 16 16.1875 16 16 16C15.7812 16 15.5625 16 15.375 15.9688C15.125 15.9375 15 15.7188 15 15.5V14.8438C14.625 14.7188 14.3125 14.5312 14.0312 14.2812L13.4688 14.625C13.2812 14.7188 13.0312 14.6875 12.875 14.5312C12.75 14.375 12.6562 14.2188 12.5625 14.0625L12.4688 13.9375C12.4062 13.7812 12.3125 13.625 12.25 13.4375C12.1562 13.2188 12.2812 13 12.4688 12.875L13.0312 12.5625C13 12.375 12.9688 12.1875 12.9688 12C12.9688 11.8125 13 11.625 13.0312 11.4688L12.4688 11.125C12.2812 11.0312 12.1562 10.7812 12.25 10.5625C12.3125 10.4062 12.4062 10.25 12.4688 10.0625L12.5625 9.96875C12.6562 9.78125 12.75 9.65625 12.875 9.5C13.0312 9.3125 13.2812 9.28125 13.4688 9.40625L14.0312 9.71875C14.3125 9.5 14.625 9.3125 15 9.1875V8.53125C15 8.3125 15.125 8.09375 15.375 8.0625C15.5625 8.03125 15.7812 8 16 8C16.1875 8 16.4062 8.03125 16.5938 8.0625C16.8438 8.09375 17 8.3125 17 8.53125V9.1875C17.3438 9.3125 17.6562 9.5 17.9375 9.71875L18.5 9.40625C18.6875 9.28125 18.9375 9.3125 19.0938 9.5C19.2188 9.65625 19.3125 9.78125 19.4062 9.9375L19.5 10.0625C19.5625 10.25 19.6562 10.4062 19.7188 10.5625C19.8125 10.7812 19.6875 11.0312 19.5 11.125ZM14.75 12C14.75 12.4688 14.9688 12.875 15.375 13.0938C15.75 13.3125 16.2188 13.3125 16.625 13.0938C17 12.875 17.25 12.4688 17.25 12C17.25 11.5625 17 11.1562 16.625 10.9375C16.2188 10.7188 15.75 10.7188 15.375 10.9375C14.9688 11.1562 14.75 11.5625 14.75 12Z" fill="white"/>
</svg>
